<?xml version="1.0" standalone="no"?>
<!DOCTYPE svg PUBLIC "-//W3C//DTD SVG 20010904//EN"
 "http://www.w3.org/TR/2001/REC-SVG-20010904/DTD/svg10.dtd">
<svg version="1.0" xmlns="http://www.w3.org/2000/svg"
 width="256.000000pt" height="256.000000pt" viewBox="0 0 256.000000 256.000000"
 preserveAspectRatio="xMidYMid meet">
<metadata>
Created by potrace 1.14, written by Peter Selinger 2001-2017
</metadata>
<g transform="translate(0.000000,256.000000) scale(0.100000,-0.100000)"
fill="#000000" stroke="none">
<path d="M1028 2483 c-9 -10 -21 -36 -28 -58 -7 -22 -19 -54 -27 -72 -7 -17
-13 -37 -13 -45 0 -7 -9 -38 -20 -68 -11 -30 -20 -64 -20 -76 0 -11 -3 -24 -7
-28 -16 -15 -33 -85 -33 -133 0 -38 -5 -57 -19 -70 -11 -10 -22 -30 -26 -46
-4 -15 -11 -30 -16 -33 -5 -3 -9 -16 -9 -30 0 -13 -4 -32 -9 -42 -18 -34 -33
-100 -26 -112 4 -6 0 -19 -8 -28 -8 -9 -17 -28 -20 -42 -3 -14 -11 -43 -18
-65 -6 -22 -12 -65 -13 -95 -1 -32 -8 -65 -18 -80 -9 -14 -19 -45 -23 -70 -3
-25 -10 -54 -15 -65 -19 -46 -50 -157 -50 -180 0 -13 -4 -27 -10 -30 -5 -3
-10 -19 -10 -35 0 -16 -4 -32 -10 -35 -5 -3 -10 -21 -10 -39 0 -17 -4 -36 -8
-42 -5 -5 -14 -34 -21 -64 -7 -30 -18 -66 -24 -79 -10 -19 -8 -25 8 -37 12 -9
30 -12 44 -9 23 6 24 5 17 -37 -4 -23 -13 -49 -20 -58 -36 -41 -23 -89 15 -54
18 16 19 16 19 -4 0 -25 25 -30 34 -7 3 8 12 15 21 15 8 0 15 -7 15 -15 0 -23
43 -18 58 6 10 15 20 19 37 15 37 -9 101 75 110 146 4 29 13 65 21 79 10 19
10 29 2 37 -9 9 -6 18 10 35 14 15 20 30 16 40 -3 10 -1 17 5 17 6 0 11 15 11
34 0 19 4 38 10 41 5 3 10 21 10 40 0 19 5 37 10 40 6 3 10 17 10 30 0 13 4
27 10 30 6 3 10 19 10 35 0 16 5 32 10 35 5 3 10 21 10 40 0 19 4 36 9 40 5 3
13 34 16 70 4 36 11 68 16 71 5 3 9 15 9 26 0 32 34 130 62 178 11 19 13 26
29 80 7 25 19 53 27 62 8 10 12 26 9 37 -8 30 18 47 49 32 21 -9 24 -14 14
-26 -6 -8 -9 -22 -6 -33 3 -10 -1 -54 -9 -97 -8 -44 -16 -87 -18 -95 -1 -9 7
-16 19 -18 14 -2 32 12 60 45 22 26 44 57 48 67 6 18 8 18 22 4 23 -23 12 -46
-56 -115 -78 -81 -70 -112 25 -94 25 5 42 5 39 0 -3 -5 -13 -9 -23 -9 -9 0
-26 -7 -37 -15 -19 -15 -19 -15 2 -32 12 -10 24 -26 27 -35 9 -25 27 -22 67 7
32 24 90 34 90 17 0 -5 -11 -19 -25 -32 -14 -13 -25 -29 -25 -36 0 -7 -23 -35
-51 -62 -50 -48 -57 -72 -22 -72 9 0 25 8 35 17 11 10 37 17 63 18 40 0 45 -2
45 -22 0 -14 -19 -40 -50 -69 -77 -72 -63 -97 53 -93 26 1 50 -1 54 -5 12 -11
-59 -76 -84 -76 -23 0 -63 -31 -63 -49 0 -5 15 -25 33 -44 23 -24 44 -36 75
-41 37 -5 42 -9 42 -33 0 -14 8 -32 18 -39 9 -8 12 -14 5 -14 -7 0 -23 15 -37
32 -14 18 -46 41 -71 52 -44 18 -47 18 -65 1 -26 -23 -25 -51 0 -65 11 -6 20
-17 20 -24 0 -7 9 -21 21 -32 12 -10 28 -32 37 -49 8 -16 23 -36 33 -43 20
-14 26 -42 9 -42 -6 0 -15 11 -20 25 -5 14 -14 25 -20 25 -21 0 -70 -31 -70
-44 0 -18 28 -75 56 -113 29 -39 30 -64 4 -81 -15 -9 -19 -19 -14 -37 4 -15 2
-25 -5 -25 -6 0 -11 -14 -11 -32 0 -17 -6 -39 -14 -47 -7 -9 -18 -45 -24 -81
-5 -36 -13 -75 -17 -87 -5 -15 -3 -23 5 -23 13 0 40 24 40 37 0 9 31 48 103
132 47 54 87 122 87 147 0 7 6 25 14 41 8 15 19 39 25 53 6 14 16 34 23 45 36
58 44 75 64 133 12 35 27 107 34 160 7 53 17 102 22 109 5 7 7 20 4 30 -3 10
-2 42 3 72 10 63 -5 199 -25 220 -9 10 -10 18 -2 31 7 10 8 25 3 36 -4 11 -7
31 -6 46 1 14 -2 29 -8 32 -6 4 -8 20 -4 36 3 17 0 36 -7 45 -6 8 -9 19 -5 26
4 6 3 21 -2 32 -10 21 -16 38 -54 142 -19 54 -38 63 -54 28 -6 -13 -19 -23
-30 -23 -18 0 -21 6 -19 48 1 26 9 65 18 87 19 46 14 101 -13 137 -9 13 -22
35 -28 50 -7 14 -21 29 -33 33 -14 5 -19 12 -15 24 3 10 -3 29 -14 42 -10 13
-20 33 -22 44 -2 11 -14 24 -26 30 -12 5 -24 18 -27 28 -6 25 -30 17 -34 -12
-3 -18 -6 -20 -18 -10 -7 6 -21 9 -29 5 -16 -6 -20 5 -8 18 15 14 12 104 -3
117 -8 6 -14 18 -14 26 0 19 -106 123 -125 123 -8 0 -15 7 -15 16 0 40 -171
62 -202 27z m132 -253 c0 -5 -5 -10 -11 -10 -5 0 -7 5 -4 10 3 6 8 10 11 10 2
0 4 -4 4 -10z"/>
</g>
</svg>
